<?xml version="1.0"?>
<svg xmlns="http://www.w3.org/2000/svg" version="1.2" baseProfile="tiny" width="800" height="880" viewBox="0 0 800 880" stroke-linecap="round" stroke-linejoin="round">
<g id="ne_50m_land">
<path d="M 597.47 866.17 596.4 866.52 596.19 865.35 597.47 866.17 Z"/>
<path d="M 603.21 865.26 618.47 853.7 611.64 867.09 621.84 875.35 607.21 871.27 602.42 878.8 598.23 858.82 608.06 843.7 603.21 865.26 Z"/>
<path d="M 436.89 744.1 472.67 698.24 474.8 711.21 436.89 744.1 Z"/>
<path d="M 519.64 693.42 529.59 698.66 510.99 712.11 510.38 689.6 519.64 693.42 Z"/>
<path d="M 529.77 734.14 518.1 722.02 531.78 703.34 536.74 706.74 529.77 734.14 Z"/>
<path d="M 552.81 697.76 560.02 699.86 560.02 718.67 552.81 697.76 Z"/>
<path d="M 563.42 678.86 571.34 702.45 548.34 678.19 563.42 678.86 Z"/>
<path d="M 491.04 663.67 504.1 669.23 499.54 683.79 485.2 664.74 491.04 663.67 Z"/>
<path d="M 575.66 730.04 584.84 763.13 578.58 778.1 570.6 762.88 565.13 789.44 563.3 781.93 544.89 776.59 546.94 760.75 538.31 754.03 533.92 760.58 521.55 754.9 511.15 767.59 515.6 752 534.62 739.9 540.44 750.34 567.56 734.92 567.12 723.08 575.66 730.04 Z"/>
<path d="M 497.38 581.7 515.96 584.2 520.01 605.49 502.02 634.22 507.99 652.68 515.1 656.47 521.73 650.29 529.31 659.35 540.7 657.96 544.59 678.23 521.22 656.83 521.29 668.22 508.18 656.36 489.97 658.48 494.82 645.06 481.11 641.78 476.17 619.37 485.69 621.69 489.37 583.41 497.38 581.7 Z"/>
<path d="M 557.83 862.91 539.71 873.92 489.04 870.37 476.8 875.82 496.15 857.64 541.19 865.42 561.37 851.9 557.83 862.91 Z"/>
<path d="M 104.62 795.34 121.45 795.71 168.96 843.86 177.3 842.77 184.17 851.78 192.84 855.78 198.74 865.36 208.99 869.56 201.3 875.35 215.06 870.71 221.04 878.05 148.41 874.53 138.18 849.04 90.03 804.4 84.44 789.99 104.62 795.34 Z"/>
<path d="M 428.85 772.01 435.59 768.04 439.92 784.88 467.92 793.16 452.04 799.18 456.63 808.91 443.04 809.49 439.86 812.83 444.32 819.92 432.81 820.98 462.12 864.65 446.47 861.27 439.75 878.8 307.58 878.8 302.74 866.13 310.28 848.11 339.72 856.52 344.34 835.02 367.89 828.34 384.24 805.78 406.83 799.49 428.85 772.01 Z"/>
<path d="M 799 206.62 796.14 202.29 799 197.6 799 206.62 Z"/>
<path d="M 799 309.66 781.39 326.13 778.57 318.22 770.1 326.64 752.11 326.86 747.03 319.83 748.79 330.99 730.3 344.35 721.24 336.05 725.84 326.31 715.05 323.95 676.31 330.97 673.66 338.73 654.06 336.55 686.05 312.04 733.61 310.51 748.62 282.18 756.27 279.95 755.05 292.22 772.19 284.79 799 250.89 799 309.66 Z"/>
<path d="M 708.94 332.07 715.03 339.02 706.14 348.17 697.37 343.96 684.16 356.08 671.84 346.69 686.25 334.64 708.94 332.07 Z"/>
<path d="M 658.15 342.5 666.47 342.5 671.35 354 650.34 383.8 651.79 372.77 648.8 381.19 641.75 377.52 644.54 374.44 642.5 366.63 649.62 358.2 648.13 354.81 643.19 349.28 644.83 356.88 635.71 358.97 632.7 348.35 650.82 337.31 658.15 342.5 Z"/>
<path d="M 495.9 517.78 493.2 528.88 481.91 501.3 505.23 475.41 510.59 480.22 495.9 517.78 Z"/>
<path d="M 334.38 559.73 321.28 584.38 299.48 582.98 298.9 570.71 308.45 561.47 334.38 559.73 Z"/>
<path d="M 387.74 524.32 386.19 523.02 387.98 523.47 387.74 524.32 Z"/>
<path d="M 181.64 831.1 180.84 831.39 181.53 829.84 181.64 831.1 Z"/>
<path d="M 587.58 330.67 586.56 331.29 585.96 329.93 587.58 330.67 Z"/>
<path d="M 498.3 781.83 502.32 784 493.79 783.8 498.3 781.83 Z"/>
<path d="M 708.86 328.44 707.26 329.41 706.15 327.87 708.86 328.44 Z"/>
<path d="M 712.74 760.98 711.47 758.69 713.63 755.71 712.74 760.98 Z"/>
<path d="M 769.36 727.17 768.15 728.47 770.05 725.69 769.36 727.17 Z"/>
<path d="M 437.59 747.69 436.5 748.07 436.4 746.09 437.59 747.69 Z"/>
<path d="M 433.19 752.98 431.43 752.8 431.82 750.31 433.19 752.98 Z"/>
<path d="M 478.46 711.44 476.5 711.93 477.44 708.98 478.46 711.44 Z"/>
<path d="M 477.59 694.86 477.1 697.24 475.49 696.35 477.59 694.86 Z"/>
<path d="M 481.4 684.6 484.82 687.08 477.98 682.49 481.4 684.6 Z"/>
<path d="M 480.42 692.02 477.58 688.01 480.37 688.6 480.42 692.02 Z"/>
<path d="M 522.09 711.66 520.3 709.5 522.91 707.38 522.09 711.66 Z"/>
<path d="M 533.59 727.98 544.26 698.87 543.72 712.81 533.59 727.98 Z"/>
<path d="M 539.76 698.72 540.7 700.83 539.44 700.82 539.76 698.72 Z"/>
<path d="M 553.12 722.6 540.72 722.11 549 716.65 553.12 722.6 Z"/>
<path d="M 556.51 732.88 554.27 733.05 554.07 731.56 556.51 732.88 Z"/>
<path d="M 538.81 731.37 537.49 733.51 535.56 732.09 538.81 731.37 Z"/>
<path d="M 483.8 794.9 476.95 797.89 482.44 793.69 483.8 794.9 Z"/>
<path d="M 513.2 776.2 509.04 772.44 516.88 773.43 513.2 776.2 Z"/>
<path d="M 576.51 722.93 576.74 718.25 578.31 722.39 576.51 722.93 Z"/>
<path d="M 570.62 720.57 567.5 717.31 570.24 712.18 570.62 720.57 Z"/>
<path d="M 484.13 659.34 484.15 660.42 481.45 657.87 484.13 659.34 Z"/>
<path d="M 510.36 662.7 513.55 663.93 511.8 668.05 510.36 662.7 Z"/>
<path d="M 513.22 681.62 511.94 685.59 514.03 676.86 513.22 681.62 Z"/>
<path d="M 516.68 678.84 515.88 679.25 516.16 677.82 516.68 678.84 Z"/>
<path d="M 522.17 682.35 518.47 680.02 521.35 679.43 522.17 682.35 Z"/>
<path d="M 532.18 673.66 533.54 676.09 527 669.61 532.18 673.66 Z"/>
<path d="M 540.06 680.04 540.11 681.43 537.6 676.51 540.06 680.04 Z"/>
<path d="M 539.12 682.69 544.37 691.23 535.24 683.82 530.2 688.47 531.45 677.97 539.12 682.69 Z"/>
<path d="M 549.28 661.23 544.26 660.74 547.23 654.12 549.28 661.23 Z"/>
<path d="M 514.52 654.58 511.02 652.87 511.07 651.71 514.52 654.58 Z"/>
<path d="M 512.25 639.32 510.65 644.89 509.16 638.79 512.25 639.32 Z"/>
<path d="M 510.47 577.24 508.93 578.07 510.82 575.39 510.47 577.24 Z"/>
<path d="M 499.79 574.24 499.7 575.32 499.16 572.63 499.79 574.24 Z"/>
<path d="M 504.07 569.78 504.24 571.23 501.74 569.87 504.07 569.78 Z"/>
<path d="M 511.08 553.76 510.78 552.36 512.22 552.11 511.08 553.76 Z"/>
<path d="M 509.77 547.12 508.38 548.41 509.29 546.17 509.77 547.12 Z"/>
<path d="M 628.77 878.8 628.37 878.08 629.28 878.8 628.77 878.8 Z"/>
<path d="M 614.72 846.05 610.96 842.13 617.09 837.34 614.72 846.05 Z"/>
<path d="M 598.26 878.8 598.4 876.52 598.75 878.8 598.26 878.8 Z"/>
<path d="M 598.22 868.55 597.63 866.93 598.58 867.09 598.22 868.55 Z"/>
<path d="M 588.59 814.43 587.65 806.22 590.26 810.32 588.59 814.43 Z"/>
<path d="M 587.04 816.96 587.08 817.63 585.73 814.29 587.04 816.96 Z"/>
<path d="M 589.16 818.66 587.99 817.46 589.24 817.95 589.16 818.66 Z"/>
<path d="M 570.1 823.96 567.76 823.56 567.08 819.22 570.1 823.96 Z"/>
<path d="M 566.1 836.48 565.84 834.03 566.73 834.7 566.1 836.48 Z"/>
<path d="M 446.65 814.09 443.68 814.9 442.49 810.97 446.65 814.09 Z"/>
<path d="M 442.43 826.44 440.66 824.03 442.79 824.42 442.43 826.44 Z"/>
<path d="M 302.44 832.43 300.83 832.75 302.42 830.94 302.44 832.43 Z"/>
<path d="M 293.32 819.91 288.32 815.23 292.24 811.49 293.32 819.91 Z"/>
<path d="M 260.91 828.41 260.89 829.51 259.57 827.65 260.91 828.41 Z"/>
<path d="M 252.54 833.11 251.45 829.92 253.75 831.29 252.54 833.11 Z"/>
<path d="M 187.86 845.63 188.04 850.25 184.55 851.14 183.1 846.53 187.86 845.63 Z"/>
<path d="M 199.34 863 196.61 856.5 199.59 859.1 199.34 863 Z"/>
<path d="M 200.37 855.51 200.49 857.56 192.9 853.14 200.37 855.51 Z"/>
<path d="M 208.92 866.88 200.35 865.13 200.61 861.42 208.92 866.88 Z"/>
<path d="M 211.14 864.91 203.72 861.98 204.1 860.3 211.14 864.91 Z"/>
<path d="M 213.02 870.15 210.71 870.04 211.47 867.63 213.02 870.15 Z"/>
<path d="M 215.25 862.07 213.51 861.7 214.54 860.71 215.25 862.07 Z"/>
<path d="M 215.67 868.2 213.98 866.39 214.64 864.92 215.67 868.2 Z"/>
<path d="M 221.7 866.02 220.33 865.55 220.48 864.57 221.7 866.02 Z"/>
<path d="M 224.84 859.96 225.5 863.01 223.36 861.7 224.84 859.96 Z"/>
<path d="M 233.78 859.39 233.62 865.52 228.46 862.6 233.78 859.39 Z"/>
<path d="M 228.26 865.49 227.26 865.95 226.17 863.9 228.26 865.49 Z"/>
<path d="M 235.44 877.85 234.07 877.28 232.41 875.1 235.44 877.85 Z"/>
<path d="M 233.01 878.8 233.1 878.52 233.83 878.8 233.01 878.8 Z"/>
<path d="M 120.41 855.42 125.81 869.79 113.98 856.05 120.41 855.42 Z"/>
<path d="M 133.92 878.8 134.66 878.69 134.85 878.8 133.92 878.8 Z"/>
<path d="M 118.05 845.67 114.45 843.42 117.37 843.67 118.05 845.67 Z"/>
<path d="M 104.16 841.13 92.25 833.7 95.1 832.69 104.16 841.13 Z"/>
<path d="M 86.58 786.03 84.27 784.8 86.53 785.01 86.58 786.03 Z"/>
<path d="M 342.37 840.25 341.13 839.9 341.48 834.62 342.37 840.25 Z"/>
<path d="M 434.18 764.4 432.95 762.92 436.13 761.47 434.18 764.4 Z"/>
<path d="M 768.99 1 762.63 6.37 754.84 4.34 768.99 1 Z"/>
<path d="M 752.83 1 752 2.17 746.57 1.7 752.83 1 Z"/>
<path d="M 548.32 487.53 545.81 490.21 544.99 488.8 548.32 487.53 Z"/>
<path d="M 541.86 491.29 538.53 490.69 539.99 489.15 541.86 491.29 Z"/>
<path d="M 566.69 483.9 563.89 484.07 564.13 481.84 566.69 483.9 Z"/>
<path d="M 611.61 453.42 601.94 462.33 606 452.77 611.61 453.42 Z"/>
<path d="M 623.41 436.38 621.84 436.26 621.97 433.55 623.41 436.38 Z"/>
<path d="M 630.66 428.58 626.07 427.93 634.45 423.66 630.66 428.58 Z"/>
<path d="M 628.61 430.25 627.15 430.31 626.51 428.85 628.61 430.25 Z"/>
<path d="M 649.34 395.8 645.59 393.8 649.67 393.79 649.34 395.8 Z"/>
<path d="M 654.72 393.67 653.29 392.91 656.32 386.78 654.72 393.67 Z"/>
<path d="M 618.1 355.57 621.76 357.67 618.54 358.43 618.1 355.57 Z"/>
<path d="M 640.72 364.41 639.56 359.75 642.08 359.44 640.72 364.41 Z"/>
<path d="M 645.48 361.32 643.26 360.69 646.76 359.85 645.48 361.32 Z"/>
<path d="M 693.19 300.99 691.1 301.39 690.57 299.56 693.19 300.99 Z"/>
<path d="M 772.57 275.16 771.07 271.07 775.12 267.28 772.57 275.16 Z"/>
<path d="M 790.72 207.19 789.92 205.3 791.95 204.73 790.72 207.19 Z"/>
<path d="M 796.46 351.23 795.45 350.12 796.98 350.63 796.46 351.23 Z"/>
<path d="M 790.32 324.56 789.3 325.15 788.95 323.78 790.32 324.56 Z"/>
<path d="M 718.13 331.56 713.9 331.47 719.27 327.48 718.13 331.56 Z"/>
<path d="M 624.67 354.67 623.4 352.89 625.19 350 624.67 354.67 Z"/>
<path d="M 631.29 348.56 629.35 349.31 632.54 346.36 631.29 348.56 Z"/>
<path d="M 636.14 340.17 634.21 340.31 634.89 338.42 636.14 340.17 Z"/>
<path d="M 627.9 334.19 626.87 331.04 628.82 331.62 627.9 334.19 Z"/>
<path d="M 629.59 330.52 627.7 330.25 630.64 325.2 629.59 330.52 Z"/>
<path d="M 680.55 334.32 678.68 334.77 679.99 333.4 680.55 334.32 Z"/>
<path d="M 675.57 337.04 678.42 337.55 674.65 338.19 675.57 337.04 Z"/>
<path d="M 454.38 487.43 454.79 489.15 452.59 488.8 454.38 487.43 Z"/>
<path d="M 450.8 487.84 449.32 488.64 449.54 486.94 450.8 487.84 Z"/>
<path d="M 619.31 323.42 615.29 322.35 618.14 320.06 619.31 323.42 Z"/>
<path d="M 608.53 323.3 605.46 324.43 604.8 322.2 608.53 323.3 Z"/>
<path d="M 604.27 326.34 603.29 326.09 604.08 325.27 604.27 326.34 Z"/>
<path d="M 580.78 348.55 580.95 344.77 589.94 343.9 580.78 348.55 Z"/>
<path d="M 579.29 330.25 577.52 329.07 581.05 327.46 579.29 330.25 Z"/>
<path d="M 583.87 276.52 582.32 278.33 582.13 275.15 583.87 276.52 Z"/>
<path d="M 509.53 376.18 504.06 375.27 499.13 371.19 509.53 376.18 Z"/>
<path d="M 516.44 400.58 512.1 399.79 511.23 397.72 516.44 400.58 Z"/>
<path d="M 514.47 405.12 512.71 403.63 513.63 403.48 514.47 405.12 Z"/>
<path d="M 518.17 401.72 517.59 402.35 517.32 400.71 518.17 401.72 Z"/>
<path d="M 476.94 472.51 475.02 472.89 475.37 469.6 476.94 472.51 Z"/>
<path d="M 326.35 542.15 328.24 544.16 324.68 543.62 326.35 542.15 Z"/>
<path d="M 281.94 540.18 278.76 542.15 279.92 539.35 281.94 540.18 Z"/>
<path d="M 280.64 544.81 278.69 545.18 281.12 543.1 280.64 544.81 Z"/>
<path d="M 272.82 547.68 271.58 545.76 273.35 546.56 272.82 547.68 Z"/>
<path d="M 270.18 546.58 268.64 545.81 269.05 544.79 270.18 546.58 Z"/>
<path d="M 266.21 740.22 265.42 739.93 266.87 738.89 266.21 740.22 Z"/>
<path d="M 225.46 712.96 224.73 718.73 222.04 713.28 225.46 712.96 Z"/>
<path d="M 209.2 698.69 208.37 698.6 209.07 697.02 209.2 698.69 Z"/>
<path d="M 202.2 692.44 201.94 694.11 201.02 693.43 202.2 692.44 Z"/>
<path d="M 199.33 687.46 197.34 687.59 196.95 684.86 199.33 687.46 Z"/>
<path d="M 223.96 857.55 218.86 857.64 221.53 855.7 223.96 857.55 Z"/>
<path d="M 227.98 835.2 226.5 834.63 227.39 832.97 227.98 835.2 Z"/>
<path d="M 165.21 794.3 163.65 794.49 164.52 791.53 165.21 794.3 Z"/>
<path d="M 158.17 775.61 156.51 778.84 154.95 776.36 158.17 775.61 Z"/>
<path d="M 155.22 774.71 154.32 773.51 155.08 771.64 155.22 774.71 Z"/>
<path d="M 161.78 724.04 160.34 722.49 161.29 722.53 161.78 724.04 Z"/>
<path d="M 161.73 725.81 160 728.43 159.64 726.22 161.73 725.81 Z"/>
<path d="M 138.13 752.17 137.13 749.39 138.32 750.21 138.13 752.17 Z"/>
<path d="M 135.21 752.68 133.41 754.69 133.82 748.47 135.21 752.68 Z"/>
<path d="M 133.59 734.34 132.68 734.51 133.49 732.94 133.59 734.34 Z"/>
<path d="M 63.09 769.78 59.38 766.82 62.01 763.3 63.09 769.78 Z"/>
<path d="M 60.59 761.39 59.07 762.9 58.41 761.99 60.59 761.39 Z"/>
<path d="M 51.13 747.14 49.91 746.73 50.43 745.54 51.13 747.14 Z"/>
<path d="M 55.94 753.07 54.71 753.09 54.22 751.01 55.94 753.07 Z"/>
<path d="M 57.45 750.22 56.51 750.73 56.76 747.53 57.45 750.22 Z"/>
<path d="M 45.49 732.98 44.36 732.53 45.08 731.27 45.49 732.98 Z"/>
<path d="M 40.95 710.34 38.55 707.21 41.07 704.88 40.95 710.34 Z"/>
<path d="M 43.98 697.16 42.43 697.07 43.14 695.11 43.98 697.16 Z"/>
<path d="M 49.16 686.69 49.87 688.89 48.17 687.24 49.16 686.69 Z"/>
<path d="M 44.37 673.48 43.86 674.51 44.26 671.93 44.37 673.48 Z"/>
<path d="M 44.46 694.68 41.44 689.3 49.87 662.61 44.46 694.68 Z"/>
<path d="M 137.33 703.85 136.3 703.56 137.08 701.85 137.33 703.85 Z"/>
<path d="M 132.03 703.99 133.01 707.39 129.96 705.05 132.03 703.99 Z"/>
<path d="M 131.59 720.26 130.56 721.15 133.34 718.38 131.59 720.26 Z"/>
<path d="M 132.22 695.61 131.89 694.19 133.46 690.74 132.22 695.61 Z"/>
<path d="M 136.92 688.8 136.12 685.93 138.41 687.97 136.92 688.8 Z"/>
<path d="M 129.88 692.19 130.01 693.08 128.85 689.51 129.88 692.19 Z"/>
<path d="M 137.52 691.35 135.62 694.19 134.69 690.61 137.52 691.35 Z"/>
<path d="M 130.86 684.88 129.28 683.57 129.82 682.62 130.86 684.88 Z"/>
<path d="M 129.74 681.06 128.72 682.83 127.7 681.76 129.74 681.06 Z"/>
<path d="M 135.29 677.74 133.69 681.92 133.66 676.46 135.29 677.74 Z"/>
<path d="M 133.71 669.74 133.61 672.36 132.91 668.09 133.71 669.74 Z"/>
<path d="M 121.9 619.4 120.39 618.56 121.37 615.38 121.9 619.4 Z"/>
<path d="M 145.89 757.63 146.31 759.56 145.36 756.92 145.89 757.63 Z"/>
<path d="M 77.69 626.32 76.55 626.26 78.06 624.51 77.69 626.32 Z"/>
<path d="M 72.45 624.3 71.41 625.86 74.44 620.16 72.45 624.3 Z"/>
<path d="M 59.91 580.6 56.66 577.67 60.77 577.71 59.91 580.6 Z"/>
<path d="M 56.73 561.31 57.07 563.51 55.47 560.39 56.73 561.31 Z"/>
<path d="M 49.04 560.81 49.25 562.33 47.52 558.22 49.04 560.81 Z"/>
<path d="M 60.29 566.65 63.28 570.26 60.94 570.36 60.29 566.65 Z"/>
<path d="M 30.91 530.36 30.33 531.67 30.54 528.84 30.91 530.36 Z"/>
<path d="M 32.11 535.53 30.68 535.13 31.45 532.1 32.11 535.53 Z"/>
<path d="M 19.37 524.88 17.67 526 18.23 519.39 19.37 524.88 Z"/>
<path d="M 25.85 521.58 23.52 520.09 24.24 517.84 25.85 521.58 Z"/>
<path d="M 11.24 512.31 11.53 513 9.56 511.48 11.24 512.31 Z"/>
<path d="M 13.41 526.25 9.22 526.64 11.86 522.45 10.52 513.9 13.41 526.25 Z"/>
<path d="M 548.69 709.53 548.98 707.92 549.73 709.1 548.69 709.53 Z"/>
<path d="M 564.08 719.48 564.19 720.27 561.72 716.73 564.08 719.48 Z"/>
<path d="M 526.68 760.55 524.56 762.04 524.84 760.24 526.68 760.55 Z"/>
<path d="M 572.12 767.67 570.5 765.91 571 764.12 572.12 767.67 Z"/>
<path d="M 575.09 725.69 574.32 725.24 575.05 723.05 575.09 725.69 Z"/>
<path d="M 553.35 695.38 549.39 692.61 551.79 692.27 553.35 695.38 Z"/>
<path d="M 557.28 693.75 556.11 693.97 555.3 691.82 557.28 693.75 Z"/>
<path d="M 634.9 373.55 634.72 372.58 636.01 371.48 634.9 373.55 Z"/>
<path d="M 582.22 296.38 580.95 296.73 580.64 294.46 582.22 296.38 Z"/>
<path d="M 558.09 247.8 557.19 248.26 558.56 246.66 558.09 247.8 Z"/>
<path d="M 499.77 430.54 497.86 430.92 499.04 428.66 499.77 430.54 Z"/>
<path d="M 376.94 514.84 377.08 515.58 374.53 513.27 376.94 514.84 Z"/>
<path d="M 364.73 534.03 364.6 531.31 365.89 531.63 364.73 534.03 Z"/>
<path d="M 362.39 533.43 360.5 533.7 362.46 532.3 362.39 533.43 Z"/>
<path d="M 384 524.32 381.47 523.82 384.74 522.36 384 524.32 Z"/>
<path d="M 275 712.86 273.66 713.83 275.43 712.09 275 712.86 Z"/>
<path d="M 213.55 707.73 212.97 708.35 212.05 706.72 213.55 707.73 Z"/>
<path d="M 578.3 324.49 575.68 322.32 576.81 321.56 578.3 324.49 Z"/>
<path d="M 654.02 280.64 652.33 280.14 653.82 279.44 654.02 280.64 Z"/>
<path d="M 724.87 1 747.88 7.05 746.63 20.09 761.75 12.44 755.17 24.2 775.51 17.6 774.27 24.35 778.18 11.85 799 14.77 799 107.53 721.29 184.13 689.83 197.36 668.04 188.45 635.51 213.07 634.75 226.72 600.59 243.88 597.82 253.04 630.12 287.34 626.86 317.3 602.93 320.92 596.7 328.77 595.46 324.11 589.88 329.16 587.61 327.99 584.04 331.14 587.58 306.28 583.34 293.17 578.12 291.92 591.15 289.25 585.68 275.8 571.88 272.55 565.31 276.71 554.67 270.26 568.45 261.37 565.36 247.96 549.23 240.22 498.37 260.64 515.93 232.42 509.08 224.85 463.47 253.45 444.44 254.21 442.39 265.55 462.88 271.64 468.43 286.07 491.77 274.97 522.37 281.85 517.16 290.96 482.73 301.01 466.48 322.61 484.06 331.79 493.42 357.52 509.05 369.68 507.95 372.88 488.1 366.39 480.37 369.1 491.22 368.34 509.08 383.06 482.91 396.15 513.04 402.07 503.84 408.23 511.22 408.13 502.9 413.86 505.49 427.26 498.09 426.71 491.73 431.76 481.18 453.12 473.23 451.31 477.9 458.51 466.07 461.9 473.72 463.78 473.77 473.56 445.37 488.19 423.47 512.58 394.44 515.63 388.32 522.96 376.37 510.09 373.36 513.12 376.83 524.13 326.76 538.24 322.66 544.52 325.7 554.89 314.82 544.97 319.09 535.97 297.76 529.26 267.27 543.64 250.32 576.1 301.39 633.37 311.34 677.71 304.03 697.87 266.03 711.78 265.87 721.44 258.54 715.66 265.5 724.93 253.66 719.19 259.05 728.83 236.74 741.58 240.84 718.12 217.85 710.39 216.98 700.9 210.92 704.62 202 684.04 174.93 676.85 175.96 664.43 160.88 665.68 148.69 730.93 157.98 730.56 167.36 764.08 184.51 769.23 215.12 801.39 215.49 831.99 229.04 855.17 224.14 852.89 216.15 857.58 181.28 832.75 162.5 775.99 139.91 747.02 133.56 747.51 142.66 691.75 125.68 641.65 124.31 614.37 110.35 601.08 108.98 612.1 99.78 611.18 87.02 627.86 86.33 621.88 75.4 624.97 76.06 615.27 68.41 623.18 74.24 598.39 65.56 570.97 63.71 577.16 56.75 569.66 62.05 571.75 64.23 570.3 60.16 561 52.87 558.48 50.95 561.87 37.83 546.98 30.74 522.09 24.62 513.56 16.09 518.15 10.64 502.28 5.3 504.44 10.43 507.47 7.94 515.68 10.41 523.56 4.68 530.4 1 526.83 1 1 724.87 1 Z"/>
<path d="M 658.11 830.5 657.54 830.29 658.36 830.03 658.11 830.5 Z"/>
<path d="M 555.52 272.63 554.76 273.59 553.62 273.19 555.52 272.63 Z"/>
</g>
</svg>