<svg xmlns="http://www.w3.org/2000/svg" width="1400" height="680" viewBox="0 0 1400 680">
<defs>
<style>
.t{font:700 48px Arial,'Noto Sans SC','Microsoft YaHei',sans-serif;fill:#1e293b}
.m{font:600 26px Arial,'Noto Sans SC','Microsoft YaHei',sans-serif;fill:#334155}
.s{font:500 22px Arial,'Noto Sans SC','Microsoft YaHei',sans-serif;fill:#64748b}
.c{fill:#ffffff;stroke:#dbeafe;stroke-width:3}
.r{fill:none;stroke:#60a5fa;stroke-width:18;stroke-linecap:round}
.a{fill:#60a5fa}
</style>
</defs>
<rect width="1400" height="680" fill="#ffffff"/>
<text x="700" y="70" text-anchor="middle" class="t">Iterative Loop</text>

<path d="M700 155 C865 155 995 280 995 340 C995 485 865 555 700 555 C535 555 405 485 405 340 C405 195 535 155 700 155" class="r"/>
<polygon points="988,332 1038,345 998,380" class="a"/>

<rect x="590" y="125" width="220" height="80" rx="22" class="c"/>
<rect x="920" y="300" width="220" height="80" rx="22" class="c"/>
<rect x="590" y="515" width="220" height="80" rx="22" class="c"/>
<rect x="260" y="300" width="220" height="80" rx="22" class="c"/>

<text x="700" y="175" text-anchor="middle" class="m">architecture</text>
<text x="1030" y="350" text-anchor="middle" class="m">train</text>
<text x="700" y="565" text-anchor="middle" class="m">diagnose</text>
<text x="370" y="350" text-anchor="middle" class="m">revise</text>
</svg>